<svg xmlns="http://www.w3.org/2000/svg" style="display:none">
    <symbol id="icon--" viewBox="0 0 3 3">
        <path d="M1.2 2.432c-.213 0-.416-.053-.608-.16A1.198 1.198 0 0 1 .16 1.84 1.24 1.24 0 0 1 0 1.2C0 .976.053.773.16.592.267.41.41.267.592.16.784.053.987 0 1.2 0c.213 0 .41.053.592.16.181.107.325.25.432.432.117.181.176.384.176.608 0 .245-.059.459-.176.64-.107.181-.25.325-.432.432-.181.107-.379.16-.592.16z" />
    </symbol>
    <symbol id="icon-arrow_forward" viewBox="0 0 24 24">
        <path d="M11.995 4.69c.071 0 .133.017.194.06l.06.053 6.95 6.948a.414.414 0 0 1 .09.126.314.314 0 0 1 .023.125.31.31 0 0 1-.023.123.41.41 0 0 1-.09.126l-6.955 6.947c-.091.09-.17.116-.253.116-.08 0-.153-.024-.236-.11l-.005-.005-.05-.06a.3.3 0 0 1-.057-.183c0-.065.014-.122.056-.182l.05-.06 6.362-6.361H4.702c-.122 0-.194-.036-.255-.096-.062-.06-.096-.134-.096-.256 0-.122.035-.195.096-.256h.001c.06-.06.133-.095.255-.096h13.41l-6.355-6.355a.347.347 0 0 1-.106-.185l-.004-.067c-.001-.089.025-.163.105-.243l.002-.001a.313.313 0 0 1 .243-.107z" />
    </symbol>
    <symbol id="icon-arrow_back" viewBox="0 0 24 24">
        <path d="M12.008 4.687c.085 0 .159.026.24.108a.337.337 0 0 1 .11.25.32.32 0 0 1-.11.242l-6.36 6.361h13.41a.34.34 0 0 1 .26.1.322.322 0 0 1 .097.252c0 .12-.034.192-.096.253a.34.34 0 0 1-.262.099H5.888l6.355 6.355c.082.081.11.158.111.25a.3.3 0 0 1-.055.186l-.053.061a.31.31 0 0 1-.242.106.344.344 0 0 1-.256-.113L4.8 12.25a.416.416 0 0 1-.09-.126.316.316 0 0 1-.023-.125c0-.049.008-.088.023-.123a.41.41 0 0 1 .09-.126l6.95-6.95a.348.348 0 0 1 .258-.113z" />
    </symbol>
    <symbol id="icon-bookmark" viewBox="0 0 24 24">
        <path d="m12 18.168-4.768 2.04c-.568.244-1.107.198-1.617-.138-.51-.337-.764-.813-.764-1.428V4.429c0-.463.17-.863.507-1.202.338-.339.737-.508 1.197-.508h10.892c.462 0 .862.17 1.201.508.34.34.509.74.509 1.2v14.214c0 .615-.256 1.091-.768 1.428-.512.337-1.052.382-1.62.138L12 18.168zm0-1.822 5.446 2.295V4.432H6.554V18.64L12 16.346zm0-11.917H6.554h10.892H12z" />
    </symbol>
    <symbol id="icon-chevron_left" viewBox="0 0 24 24">
        <path d="M14.037 6.648c.1 0 .178.03.256.109a.333.333 0 0 1 .108.256c.001.1-.029.177-.107.256l-4.707 4.706.353.353 4.353 4.352c.078.077.1.145.097.225a.367.367 0 0 1-.121.26.335.335 0 0 1-.257.11.335.335 0 0 1-.256-.11l-4.944-4.942a.536.536 0 0 1-.062-.073l-.028-.052a.355.355 0 0 1-.018-.191l.018-.058a.4.4 0 0 1 .09-.124l4.97-4.97a.333.333 0 0 1 .255-.108z"  />
    </symbol>
    <symbol id="icon-chevron_right" viewBox="0 0 24 24">
        <path d="M9.387 6.673c.1 0 .178.03.256.108l4.944 4.946c.054.054.08.095.091.124a.314.314 0 0 1 .024.125.314.314 0 0 1-.024.124.402.402 0 0 1-.09.124l-4.97 4.968c-.077.078-.144.1-.225.097a.366.366 0 0 1-.26-.122.335.335 0 0 1-.11-.256c0-.1.031-.178.11-.256l4.68-4.681-4.706-4.707c-.078-.078-.1-.144-.097-.225a.368.368 0 0 1 .122-.262.333.333 0 0 1 .255-.107z" />
    </symbol>
    <symbol id="icon-close" viewBox="0 0 24 24">
        <path d="M17.6 5.925a.45.45 0 0 1 .346.129.45.45 0 0 1 .13.346.452.452 0 0 1-.13.346L12.692 12l.354.354 4.9 4.9c.08.08.13.182.13.346a.45.45 0 0 1-.13.347.45.45 0 0 1-.346.128.452.452 0 0 1-.347-.128l-4.9-4.9-.353-.354-5.254 5.254a.452.452 0 0 1-.347.128.45.45 0 0 1-.346-.128.45.45 0 0 1-.13-.347c0-.164.05-.267.13-.347L11.307 12l-.354-.353-4.9-4.9a.45.45 0 0 1-.128-.347.45.45 0 0 1 .129-.346.45.45 0 0 1 .345-.13.45.45 0 0 1 .346.13l4.9 4.9.354.353 5.253-5.253a.452.452 0 0 1 .347-.13z" />
    </symbol>
    <symbol id="icon-Company-Logo" viewBox="0 0 110 32">
        <path d="M7.307 22.424c-0.645-0.662-1.17-1.445-1.535-2.312l-0.018-0.049c-0.35-0.808-0.555-1.75-0.556-2.739v-0.001c0-1.092 0.192-2.094 0.578-3.006 0.384-0.913 0.958-1.75 1.721-2.513 0.954-0.951 2.314-1.635 4.080-2.052s3.932-0.596 6.5-0.535c0.332 0.014 0.634 0.082 0.907 0.202s0.518 0.286 0.74 0.5c0.216 0.216 0.388 0.461 0.515 0.733s0.196 0.578 0.21 0.913c0.015 0.381 0.023 0.828 0.023 1.278 0 0.802-0.026 1.597-0.078 2.386l0.006-0.107c-0.068 1.092-0.223 2.108-0.458 3.093l0.025-0.122c-0.215 0.892-0.495 1.686-0.843 2.382s-0.764 1.289-1.255 1.781c-0.756 0.757-1.578 1.333-2.468 1.726-0.889 0.391-1.839 0.588-2.848 0.588-1.042 0-1.996-0.173-2.862-0.52s-1.66-0.89-2.381-1.629zM9.712 22.285c0.373 0.253 0.804 0.444 1.291 0.573s1.003 0.196 1.544 0.196c0.822-0.001 1.601-0.18 2.302-0.501l-0.035 0.014c0.777-0.353 1.438-0.825 1.993-1.401l0.002-0.002c0.425-0.428 0.78-0.984 1.062-1.668s0.508-1.472 0.676-2.365c0.164-0.861 0.28-1.878 0.322-2.914l0.001-0.042c0.048-1.077 0.044-2.222-0.012-3.436-0.374-0.012-0.815-0.018-1.256-0.018-0.866 0-1.725 0.025-2.579 0.075l0.118-0.005c-1.097 0.068-2.065 0.192-2.904 0.37s-1.558 0.404-2.159 0.68c-0.601 0.276-1.089 0.608-1.463 0.997-0.612 0.622-1.082 1.289-1.412 1.997-0.308 0.63-0.49 1.37-0.494 2.152v0.002c0 0.695 0.148 1.429 0.442 2.201 0.295 0.77 0.666 1.391 1.111 1.861 0.789-1.472 1.711-2.74 2.78-3.865l-0.007 0.008c1.084-1.141 2.258-2.053 3.515-2.738-1.274 1.114-2.309 2.317-3.106 3.611-0.758 1.213-1.355 2.621-1.714 4.121l-0.020 0.097z"></path>
        <path d="M28.679 13.333v-11.164h9.618v11.164h-1.564v-10.192l0.382 0.414h-7.257l0.4-0.414v10.192h-1.58zM45.845 13.429c-0.012 0-0.025 0-0.039 0-0.693 0-1.344-0.178-1.91-0.49l0.020 0.010c-0.575-0.331-1.037-0.814-1.388-1.452-0.34-0.637-0.51-1.436-0.51-2.392s0.164-1.755 0.494-2.393c0.34-0.637 0.797-1.116 1.372-1.436 0.584-0.319 1.238-0.478 1.961-0.478 0.829 0 1.564 0.18 2.202 0.542 0.637 0.364 1.151 0.878 1.504 1.496l0.010 0.020c0.373 0.638 0.558 1.387 0.558 2.249s-0.187 1.616-0.558 2.265c-0.364 0.637-0.878 1.152-1.495 1.505l-0.020 0.010c-0.638 0.361-1.372 0.542-2.202 0.542zM41.364 16.428v-11.547h1.467v2.281l-0.095 1.962 0.16 1.962v5.343h-1.532zM45.718 12.090c0.542 0 1.026-0.122 1.452-0.366 0.436-0.244 0.776-0.59 1.020-1.037 0.255-0.456 0.382-0.982 0.382-1.578 0-0.606-0.127-1.127-0.382-1.564-0.239-0.439-0.586-0.791-1.008-1.030l-0.013-0.007c-0.426-0.244-0.909-0.367-1.452-0.367-0.010-0-0.023-0-0.035-0-0.52 0-1.008 0.136-1.431 0.375l0.015-0.008c-0.429 0.251-0.776 0.602-1.013 1.023l-0.007 0.014c-0.245 0.436-0.367 0.957-0.367 1.564-0.001 0.596 0.121 1.122 0.365 1.579 0.257 0.448 0.596 0.793 1.022 1.038 0.408 0.231 0.896 0.366 1.415 0.366 0.013 0 0.026-0 0.038-0l-0.002 0zM52.186 13.334v-8.454h1.53v6.156l5.185-6.156h1.388v8.453h-1.531v-6.156l-5.168 6.156h-1.404zM67.581 13.43c-0.012 0-0.025 0-0.039 0-0.693 0-1.344-0.178-1.91-0.49l0.020 0.010c-0.575-0.331-1.037-0.814-1.388-1.452-0.34-0.637-0.51-1.436-0.51-2.392s0.165-1.755 0.494-2.393c0.34-0.637 0.797-1.116 1.372-1.436 0.584-0.319 1.238-0.478 1.962-0.478 0.83 0 1.564 0.18 2.202 0.542 0.637 0.364 1.151 0.878 1.504 1.496l0.010 0.020c0.373 0.638 0.56 1.387 0.56 2.249s-0.187 1.616-0.558 2.265c-0.364 0.637-0.878 1.152-1.496 1.505l-0.019 0.010c-0.638 0.361-1.372 0.542-2.201 0.542zM63.1 16.428v-11.548h1.468v2.281l-0.096 1.962 0.16 1.962v5.343h-1.532zM67.455 12.091c0.542 0 1.025-0.122 1.451-0.366 0.436-0.244 0.776-0.59 1.020-1.037 0.255-0.456 0.382-0.982 0.382-1.578 0-0.606-0.127-1.127-0.382-1.564-0.238-0.44-0.586-0.793-1.007-1.032l-0.013-0.007c-0.426-0.244-0.909-0.367-1.452-0.367-0.010-0-0.023-0-0.035-0-0.52 0-1.008 0.136-1.431 0.375l0.015-0.008c-0.429 0.251-0.776 0.602-1.013 1.023l-0.007 0.014c-0.244 0.436-0.367 0.957-0.367 1.564 0 0.596 0.123 1.122 0.367 1.579 0.255 0.448 0.596 0.793 1.020 1.038 0.408 0.231 0.896 0.366 1.415 0.366 0.013 0 0.026-0 0.038-0l-0.002 0zM77.542 13.431c-0.851 0-1.605-0.187-2.265-0.558-0.653-0.369-1.182-0.888-1.552-1.512l-0.011-0.019c-0.382-0.66-0.574-1.404-0.574-2.233 0-0.84 0.191-1.585 0.574-2.233 0.378-0.641 0.908-1.156 1.542-1.505l0.021-0.011c0.66-0.372 1.414-0.558 2.265-0.558 0.84 0 1.59 0.187 2.249 0.558 0.67 0.362 1.191 0.867 1.564 1.516 0.382 0.637 0.574 1.382 0.574 2.233 0 0.84-0.191 1.584-0.573 2.233-0.375 0.648-0.906 1.169-1.543 1.521l-0.021 0.010c-0.659 0.372-1.409 0.558-2.249 0.558zM77.542 12.091c0.542 0 1.027-0.122 1.452-0.366 0.436-0.244 0.775-0.59 1.020-1.037 0.245-0.456 0.367-0.982 0.367-1.578 0-0.606-0.122-1.127-0.366-1.564-0.239-0.439-0.587-0.792-1.008-1.030l-0.013-0.007c-0.427-0.244-0.91-0.367-1.452-0.367s-1.026 0.123-1.452 0.367c-0.429 0.251-0.775 0.602-1.013 1.023l-0.007 0.014c-0.255 0.436-0.382 0.957-0.382 1.564 0 0.596 0.127 1.122 0.382 1.579 0.255 0.448 0.596 0.793 1.020 1.038s0.909 0.366 1.452 0.366zM89.692 12.617v-6.397h-3.668l-0.080 1.627c-0.023 0.585-0.063 1.121-0.12 1.651l0.009-0.104c-0.042 0.504-0.121 0.967-0.236 1.415l0.013-0.058c-0.095 0.415-0.238 0.756-0.43 1.020-0.191 0.267-0.446 0.432-0.764 0.496l-1.516-0.271c0.33 0.011 0.596-0.096 0.797-0.32 0.203-0.233 0.356-0.552 0.462-0.956 0.117-0.404 0.203-0.861 0.256-1.372 0.053-0.521 0.096-1.058 0.128-1.611l0.126-2.855h6.556v7.736h-1.532zM82.563 15.297v-3.301h9.952v3.301h-1.435v-1.964h-7.067v1.962h-1.451zM94.35 13.333v-8.453h1.532v3.588h4.818v-3.588h1.529v8.453h-1.529v-3.541h-4.818v3.541h-1.532zM105.049 13.333v-8.453h1.531v8.453h-1.531zM105.813 3.253c-0.297 0-0.547-0.096-0.749-0.288-0.177-0.174-0.287-0.415-0.287-0.683 0-0.007 0-0.013 0-0.020l-0 0.001c0-0.286 0.096-0.525 0.287-0.717 0.203-0.192 0.453-0.288 0.75-0.288 0.299 0 0.542 0.096 0.734 0.287 0.203 0.18 0.302 0.409 0.302 0.684 0 0.288-0.094 0.533-0.286 0.734-0.191 0.192-0.441 0.287-0.749 0.287zM28.68 29.333v-11.164h1.307l5.009 8.437h-0.702l4.944-8.438h1.308l0.016 11.165h-1.532l-0.017-8.756h0.368l-4.403 7.4h-0.732l-4.435-7.401h0.4v8.756h-1.532zM48.807 29.333v-1.787l-0.080-0.334v-3.047c0-0.649-0.191-1.148-0.574-1.5-0.372-0.362-0.935-0.542-1.689-0.542-0.5 0-0.989 0.084-1.468 0.254-0.478 0.16-0.883 0.378-1.212 0.654l-0.638-1.148c0.442-0.351 0.963-0.624 1.531-0.789l0.032-0.008c0.57-0.182 1.226-0.287 1.907-0.287 0.008 0 0.016 0 0.024 0h-0.001c1.159 0 2.053 0.282 2.68 0.844 0.628 0.564 0.942 1.426 0.942 2.585v5.105h-1.452zM46.032 29.429c-0.628 0-1.18-0.107-1.66-0.32-0.468-0.212-0.829-0.504-1.084-0.876-0.24-0.355-0.382-0.792-0.382-1.263 0-0.010 0-0.021 0-0.031l-0 0.002c0-0.457 0.107-0.871 0.318-1.244 0.224-0.372 0.58-0.669 1.069-0.892 0.498-0.223 1.169-0.335 2.009-0.335h2.679v1.1h-2.616c-0.764 0-1.28 0.128-1.547 0.382-0.245 0.227-0.398 0.55-0.398 0.909 0 0.006 0 0.012 0 0.018v-0.001c0 0.414 0.165 0.749 0.494 1.004 0.33 0.244 0.788 0.367 1.372 0.367 0.574 0 1.074-0.128 1.499-0.382 0.436-0.256 0.75-0.628 0.942-1.117l0.302 1.052c-0.202 0.5-0.558 0.899-1.068 1.196-0.51 0.287-1.154 0.431-1.93 0.431zM52.855 29.333v-8.453h1.532v3.588h4.817v-3.588h1.532v8.453h-1.532v-3.541h-4.818v3.541h-1.531zM69.326 28.616v-6.396h-3.668l-0.080 1.627c-0.023 0.585-0.063 1.121-0.12 1.651l0.009-0.104c-0.042 0.504-0.121 0.967-0.236 1.415l0.013-0.058c-0.098 0.415-0.24 0.756-0.432 1.021s-0.446 0.43-0.765 0.494l-1.516-0.271c0.329 0.011 0.596-0.096 0.797-0.32 0.203-0.233 0.356-0.552 0.462-0.956 0.117-0.404 0.203-0.861 0.256-1.372 0.053-0.521 0.095-1.058 0.127-1.611l0.128-2.855h6.556v7.736h-1.532zM62.197 31.295v-3.301h9.952v3.301h-1.436v-1.962h-7.066v1.962h-1.452zM78.467 29.428c-0.012 0-0.026 0-0.041 0-0.692 0-1.342-0.177-1.909-0.489l0.020 0.010c-0.575-0.33-1.037-0.814-1.388-1.452-0.34-0.637-0.51-1.436-0.51-2.392s0.164-1.755 0.493-2.393c0.34-0.637 0.797-1.116 1.372-1.436 0.585-0.319 1.239-0.478 1.962-0.478 0.829 0 1.564 0.18 2.202 0.542 0.637 0.364 1.151 0.878 1.504 1.496l0.010 0.020c0.372 0.638 0.558 1.387 0.558 2.249s-0.187 1.616-0.558 2.265c-0.364 0.637-0.878 1.151-1.495 1.505l-0.019 0.010c-0.638 0.361-1.372 0.542-2.202 0.542zM73.985 32.428v-11.547h1.467v2.281l-0.095 1.962 0.16 1.962v5.343h-1.532zM78.34 28.090c0.542 0 1.026-0.122 1.452-0.366 0.436-0.244 0.776-0.59 1.020-1.037 0.255-0.456 0.382-0.982 0.382-1.578 0-0.606-0.127-1.127-0.382-1.564-0.239-0.439-0.586-0.791-1.008-1.030l-0.013-0.007c-0.426-0.244-0.909-0.367-1.452-0.367-0.010-0-0.023-0-0.035-0-0.52 0-1.008 0.136-1.431 0.375l0.015-0.008c-0.43 0.251-0.777 0.602-1.015 1.023l-0.007 0.014c-0.244 0.436-0.366 0.957-0.366 1.564 0 0.596 0.122 1.122 0.366 1.579 0.255 0.448 0.596 0.793 1.021 1.038 0.408 0.231 0.896 0.366 1.415 0.366 0.013 0 0.025-0 0.037-0l-0.002 0zM84.806 29.334v-8.453h1.532v6.156l5.184-6.156h1.387v8.452h-1.531v-6.156l-5.167 6.156h-1.404z"></path>
    </symbol>
    <symbol id="icon-eco--1-" viewBox="0 0 24 24">
        <path  d="M5.223 19.727a8.4 8.4 0 0 1-1.746-2.657 8 8 0 0 1-.626-3.082q0-1.843.65-3.382.65-1.54 1.937-2.827 1.61-1.605 4.59-2.308t7.312-.603q.56.025 1.02.226.458.203.83.563.365.365.58.825.212.46.236 1.026a40 40 0 0 1-.056 4.003 20 20 0 0 1-.488 3.342q-.363 1.506-.948 2.68a7.6 7.6 0 0 1-1.412 2.003q-1.275 1.28-2.776 1.944-1.5.66-3.204.662-1.76 0-3.22-.585t-2.68-1.833m2.708-.156q.63.426 1.452.645a6.7 6.7 0 0 0 1.737.22q1.313 0 2.55-.548a7.2 7.2 0 0 0 2.244-1.58q.717-.722 1.195-1.875t.76-2.66a24 24 0 0 0 .363-3.328q.082-1.818-.012-3.865a49 49 0 0 0-4.18.06q-1.852.113-3.268.414-1.416.3-2.43.765T6.7 8.94Q5.666 9.992 5.11 11.19a5.7 5.7 0 0 0-.556 2.423q0 1.174.497 2.476.5 1.3 1.25 2.094a19.7 19.7 0 0 1 3.12-4.34q1.83-1.926 3.955-3.08-2.15 1.88-3.495 4.062a16 16 0 0 0-1.95 4.745"/>
    </symbol>
    <symbol id="icon-eco" viewBox="0 0 24 24">
        <path d="M5.223 19.727a8.38 8.38 0 0 1-1.746-2.656 7.96 7.96 0 0 1-.626-3.082c0-1.229.217-2.356.65-3.382.433-1.027 1.079-1.969 1.937-2.827 1.073-1.07 2.603-1.84 4.59-2.308 1.986-.47 4.423-.67 7.312-.603.372.016.712.092 1.018.226.307.135.584.323.833.563a2.667 2.667 0 0 1 .815 1.852 40.29 40.29 0 0 1-.055 4.001 20.168 20.168 0 0 1-.488 3.342c-.242 1.004-.558 1.897-.948 2.68-.39.783-.86 1.45-1.412 2.003-.85.854-1.775 1.502-2.776 1.944-1 .44-2.069.661-3.204.661-1.173 0-2.246-.194-3.22-.584-.975-.39-1.867-1.001-2.679-1.833zm2.707-.156c.42.285.903.5 1.452.645.549.146 1.128.22 1.737.22.875 0 1.725-.183 2.55-.548a7.18 7.18 0 0 0 2.244-1.579c.478-.482.876-1.107 1.195-1.876.318-.769.571-1.656.76-2.661a24.09 24.09 0 0 0 .363-3.326c.055-1.212.05-2.5-.012-3.865a48.926 48.926 0 0 0-4.181.058c-1.235.077-2.324.216-3.268.416s-1.754.455-2.429.765c-.675.31-1.224.684-1.645 1.122-.688.7-1.217 1.45-1.588 2.247a5.698 5.698 0 0 0-.556 2.423c0 .782.166 1.608.497 2.475.333.868.75 1.567 1.25 2.096a19.728 19.728 0 0 1 3.12-4.34c1.222-1.284 2.54-2.31 3.955-3.08-1.434 1.253-2.599 2.607-3.495 4.061a15.988 15.988 0 0 0-1.95 4.746z" />
    </symbol>
    <symbol id="icon-edit" viewBox="0 0 24 24">
        <path d="M4.548 19.446h1.106l11.495-11.47-1.095-1.1L4.548 18.352v1.094zm-.846 1.704a.826.826 0 0 1-.851-.852v-1.92c0-.229.047-.451.14-.67.094-.217.217-.402.37-.555L17.214 3.319c.137-.143.302-.253.496-.332.193-.08.394-.118.602-.118.19 0 .382.04.573.118.192.08.368.187.53.325l1.298 1.279c.154.162.266.34.337.533a1.602 1.602 0 0 1-.013 1.175c-.079.2-.187.37-.324.512L6.859 20.64a1.843 1.843 0 0 1-.56.37 1.66 1.66 0 0 1-.665.14H3.702zM16.605 7.42l-.55-.544 1.094 1.1-.545-.556z" />
    </symbol>
    <symbol id="icon-facebook--1-" viewBox="0 0 24 24">
        <path d="M22 12.304c0-5.557-4.477-10.061-10-10.061S2 6.747 2 12.303c0 5.023 3.657 9.185 8.438 9.94v-7.03h-2.54v-2.91h2.54v-2.216c0-2.521 1.493-3.914 3.777-3.914 1.094 0 2.238.196 2.238.196v2.475h-1.26c-1.243 0-1.63.776-1.63 1.572v1.887h2.773l-.443 2.908h-2.33v7.03c4.78-.754 8.437-4.916 8.437-9.938z" />
    </symbol>
    <symbol id="icon-keyboard_arrow_down" viewBox="0 0 24 24">
        <path d="M12 15.202a.814.814 0 0 1-.603-.261L6.453 9.998a.79.79 0 0 1-.242-.61.878.878 0 0 1 .268-.609.83.83 0 0 1 .61-.255c.235 0 .439.085.609.255L12 13.107l4.328-4.329c.17-.17.37-.25.597-.242a.865.865 0 0 1 .597.267.83.83 0 0 1 .255.61.83.83 0 0 1-.256.609l-4.918 4.919a.813.813 0 0 1-.603.26z"  />
    </symbol>
    <symbol id="icon-keyboard_arrow_up" viewBox="0 0 24 24">
        <path d="M12 8.704c.093 0 .17.028.25.108l4.943 4.945A.32.32 0 0 1 17.3 14a.32.32 0 0 1-.107.243.334.334 0 0 1-.256.109.333.333 0 0 1-.255-.109l-4.33-4.305-.354-.351-4.68 4.68c-.078.078-.144.1-.225.097a.367.367 0 0 1-.261-.12.334.334 0 0 1-.109-.257c0-.1.03-.177.109-.256l4.918-4.917a.326.326 0 0 1 .25-.109z" />
    </symbol>
    <symbol id="icon-instagram--1-" viewBox="0 0 24 24">
        <path d="M12.005 4.866c2.404 0 2.689.01 3.634.053.878.038 1.352.185 1.669.308.417.162.72.36 1.032.672.317.316.51.615.675 1.033.123.317.27.795.31 1.67.042.95.052 1.234.052 3.635s-.011 2.69-.054 3.635c-.038.88-.186 1.353-.31 1.67a2.78 2.78 0 0 1-.67 1.033c-.317.317-.616.51-1.034.675-.316.124-.794.272-1.67.31-.949.043-1.234.053-3.635.053-2.4 0-2.688-.01-3.634-.053-.88-.038-1.354-.186-1.67-.309a2.785 2.785 0 0 1-1.034-.67 2.823 2.823 0 0 1-.676-1.034c-.123-.316-.27-.794-.31-1.67-.041-.949-.052-1.233-.052-3.634s.01-2.69.053-3.635c.039-.88.186-1.353.31-1.67.16-.419.358-.72.67-1.034A2.82 2.82 0 0 1 6.7 5.228c.316-.123.793-.27 1.67-.31.945-.041 1.23-.052 3.634-.052zm0-1.62c-2.444 0-2.749.01-3.71.053-.955.04-1.613.195-2.182.417a4.385 4.385 0 0 0-1.595 1.04 4.406 4.406 0 0 0-1.04 1.593c-.222.573-.377 1.226-.42 2.182-.041.964-.052 1.27-.052 3.713s.01 2.748.053 3.708c.04.956.196 1.614.417 2.183a4.392 4.392 0 0 0 1.04 1.596 4.398 4.398 0 0 0 1.593 1.037c.573.22 1.227.375 2.183.417.96.042 1.265.053 3.708.053 2.444 0 2.75-.01 3.71-.053.956-.042 1.613-.197 2.183-.418a4.392 4.392 0 0 0 1.592-1.038c.499-.5.809-1.002 1.037-1.593.222-.574.376-1.227.419-2.183.043-.96.053-1.266.053-3.71 0-2.442-.01-2.748-.052-3.708-.042-.957-.196-1.614-.418-2.184a4.22 4.22 0 0 0-1.03-1.6A4.398 4.398 0 0 0 17.9 3.72c-.573-.222-1.227-.376-2.183-.419-.963-.044-1.269-.055-3.712-.055z" />
        <path d="M12.004 7.622a4.624 4.624 0 0 0 0 9.245 4.623 4.623 0 0 0 0-9.245zm0 7.62a2.998 2.998 0 1 1 0-5.996 2.998 2.998 0 0 1 0 5.997z" />
        <path d="M17.888 7.44a1.08 1.08 0 1 1-2.158 0 1.08 1.08 0 0 1 2.158 0z" />
    </symbol>
    <symbol id="icon-logout" viewBox="0 0 24 24">
        <path d="M4.554 21.15c-.46 0-.86-.17-1.197-.507a1.636 1.636 0 0 1-.506-1.197V4.554c0-.462.17-.862.507-1.2.338-.34.737-.51 1.197-.51h6.605c.24 0 .442.084.605.25a.84.84 0 0 1 .246.613.815.815 0 0 1-.245.605.83.83 0 0 1-.606.242H4.553v14.892h6.605a.82.82 0 0 1 .605.247.83.83 0 0 1 .246.61.815.815 0 0 1-.245.604.828.828 0 0 1-.606.243H4.553zm13.338-8.298H9.816a.82.82 0 0 1-.606-.247.83.83 0 0 1-.246-.61c0-.24.082-.443.246-.604a.828.828 0 0 1 .606-.242h8.026l-1.923-1.923a.78.78 0 0 1-.244-.6.857.857 0 0 1 .268-.596.814.814 0 0 1 .607-.256.854.854 0 0 1 .612.258l3.397 3.396c.165.172.248.37.248.598a.826.826 0 0 1-.25.596l-3.37 3.372a.773.773 0 0 1-.595.245.89.89 0 0 1-.61-.266.86.86 0 0 1-.248-.608.814.814 0 0 1 .259-.61l1.898-1.904z" />
    </symbol>
    <symbol id="icon-x--1-" viewBox="0 0 24 24">
        <path d="M17.176 4.243h2.76l-6.03 6.777L21 20.243h-5.554l-4.35-5.594-4.979 5.593H3.355l6.45-7.25L3 4.243h5.695l3.933 5.112 4.548-5.112zm-.969 14.375h1.53L7.864 5.782h-1.64l9.983 12.836z" />
    </symbol>
    <symbol id="icon-menu" viewBox="0 0 32 32">
        <path d="M4.936 24.294c-0.321 0-0.59-0.11-0.808-0.329s-0.327-0.493-0.327-0.82c0-0.322 0.109-0.591 0.327-0.807s0.488-0.323 0.808-0.323h22.127c0.321 0 0.591 0.11 0.812 0.329s0.331 0.49 0.331 0.812c0 0.327-0.11 0.599-0.331 0.814s-0.492 0.323-0.812 0.323h-22.127zM4.936 17.135c-0.321 0-0.59-0.11-0.808-0.329s-0.327-0.49-0.327-0.812c0-0.322 0.109-0.591 0.327-0.806s0.488-0.323 0.808-0.323h22.127c0.321 0 0.591 0.11 0.812 0.329s0.331 0.49 0.331 0.812c0 0.322-0.11 0.591-0.331 0.806s-0.492 0.323-0.812 0.323h-22.127zM4.936 9.983c-0.321 0-0.59-0.11-0.808-0.329s-0.327-0.493-0.327-0.82c0-0.322 0.109-0.591 0.327-0.806s0.488-0.323 0.808-0.323h22.127c0.321 0 0.591 0.11 0.812 0.329s0.331 0.49 0.331 0.812c0 0.328-0.11 0.599-0.331 0.815s-0.492 0.323-0.812 0.323h-22.127z"></path>
    </symbol>
    <symbol id="icon-youtube--1-" viewBox="0 0 24 24">
        <path d="M21.593 7.203a2.506 2.506 0 0 0-1.762-1.766c-1.565-.43-7.83-.437-7.83-.437s-6.264-.007-7.83.404a2.56 2.56 0 0 0-1.767 1.778c-.413 1.566-.417 4.814-.417 4.814s-.004 3.264.406 4.814c.23.857.905 1.534 1.763 1.765 1.582.43 7.83.437 7.83.437s6.265.007 7.831-.403a2.515 2.515 0 0 0 1.767-1.764c.414-1.565.417-4.812.417-4.812s.02-3.265-.407-4.83zM9.996 15.005l.005-6 5.208 3.005-5.212 2.995z" />
    </symbol>
</svg>