<svg xmlns="http://www.w3.org/2000/svg" style="display:none">
<symbol id="icon--" viewBox="0 0 3 3">
<path d="M1.2 2.432c-.213 0-.416-.053-.608-.16A1.198 1.198 0 0 1 .16 1.84 1.24 1.24 0 0 1 0 1.2C0 .976.053.773.16.592.267.41.41.267.592.16.784.053.987 0 1.2 0c.213 0 .41.053.592.16.181.107.325.25.432.432.117.181.176.384.176.608 0 .245-.059.459-.176.64-.107.181-.25.325-.432.432-.181.107-.379.16-.592.16z" />
</symbol>
<symbol id="icon-arrow_forward" viewBox="0 0 24 24">
<path d="M11.995 4.69c.071 0 .133.017.194.06l.06.053 6.95 6.948a.414.414 0 0 1 .09.126.314.314 0 0 1 .023.125.31.31 0 0 1-.023.123.41.41 0 0 1-.09.126l-6.955 6.947c-.091.09-.17.116-.253.116-.08 0-.153-.024-.236-.11l-.005-.005-.05-.06a.3.3 0 0 1-.057-.183c0-.065.014-.122.056-.182l.05-.06 6.362-6.361H4.702c-.122 0-.194-.036-.255-.096-.062-.06-.096-.134-.096-.256 0-.122.035-.195.096-.256h.001c.06-.06.133-.095.255-.096h13.41l-6.355-6.355a.347.347 0 0 1-.106-.185l-.004-.067c-.001-.089.025-.163.105-.243l.002-.001a.313.313 0 0 1 .243-.107z" />
</symbol>
<symbol id="icon-arrow_back" viewBox="0 0 24 24">
<path d="M12.008 4.687c.085 0 .159.026.24.108a.337.337 0 0 1 .11.25.32.32 0 0 1-.11.242l-6.36 6.361h13.41a.34.34 0 0 1 .26.1.322.322 0 0 1 .097.252c0 .12-.034.192-.096.253a.34.34 0 0 1-.262.099H5.888l6.355 6.355c.082.081.11.158.111.25a.3.3 0 0 1-.055.186l-.053.061a.31.31 0 0 1-.242.106.344.344 0 0 1-.256-.113L4.8 12.25a.416.416 0 0 1-.09-.126.316.316 0 0 1-.023-.125c0-.049.008-.088.023-.123a.41.41 0 0 1 .09-.126l6.95-6.95a.348.348 0 0 1 .258-.113z" />
</symbol>
<symbol id="icon-bookmark" viewBox="0 0 24 24">
<path d="m12 18.168-4.768 2.04c-.568.244-1.107.198-1.617-.138-.51-.337-.764-.813-.764-1.428V4.429c0-.463.17-.863.507-1.202.338-.339.737-.508 1.197-.508h10.892c.462 0 .862.17 1.201.508.34.34.509.74.509 1.2v14.214c0 .615-.256 1.091-.768 1.428-.512.337-1.052.382-1.62.138L12 18.168zm0-1.822 5.446 2.295V4.432H6.554V18.64L12 16.346zm0-11.917H6.554h10.892H12z" />
</symbol>
<symbol id="icon-chevron_left" viewBox="0 0 24 24">
<path d="M14.037 6.648c.1 0 .178.03.256.109a.333.333 0 0 1 .108.256c.001.1-.029.177-.107.256l-4.707 4.706.353.353 4.353 4.352c.078.077.1.145.097.225a.367.367 0 0 1-.121.26.335.335 0 0 1-.257.11.335.335 0 0 1-.256-.11l-4.944-4.942a.536.536 0 0 1-.062-.073l-.028-.052a.355.355 0 0 1-.018-.191l.018-.058a.4.4 0 0 1 .09-.124l4.97-4.97a.333.333 0 0 1 .255-.108z"  />
</symbol>
<symbol id="icon-chevron_right" viewBox="0 0 24 24">
<path d="M9.387 6.673c.1 0 .178.03.256.108l4.944 4.946c.054.054.08.095.091.124a.314.314 0 0 1 .024.125.314.314 0 0 1-.024.124.402.402 0 0 1-.09.124l-4.97 4.968c-.077.078-.144.1-.225.097a.366.366 0 0 1-.26-.122.335.335 0 0 1-.11-.256c0-.1.031-.178.11-.256l4.68-4.681-4.706-4.707c-.078-.078-.1-.144-.097-.225a.368.368 0 0 1 .122-.262.333.333 0 0 1 .255-.107z" />
</symbol>
<symbol id="icon-close" viewBox="0 0 24 24">
<path d="M17.6 5.925a.45.45 0 0 1 .346.129.45.45 0 0 1 .13.346.452.452 0 0 1-.13.346L12.692 12l.354.354 4.9 4.9c.08.08.13.182.13.346a.45.45 0 0 1-.13.347.45.45 0 0 1-.346.128.452.452 0 0 1-.347-.128l-4.9-4.9-.353-.354-5.254 5.254a.452.452 0 0 1-.347.128.45.45 0 0 1-.346-.128.45.45 0 0 1-.13-.347c0-.164.05-.267.13-.347L11.307 12l-.354-.353-4.9-4.9a.45.45 0 0 1-.128-.347.45.45 0 0 1 .129-.346.45.45 0 0 1 .345-.13.45.45 0 0 1 .346.13l4.9 4.9.354.353 5.253-5.253a.452.452 0 0 1 .347-.13z" />
</symbol>
<symbol id="icon-company-logo" viewBox="0 0 124 36">
<g clip-path="url(#clip0_12792_725)"><path d="M8.22 25.227a8.38 8.38 0 0 1-1.747-2.656 7.96 7.96 0 0 1-.626-3.082c0-1.228.216-2.356.65-3.382.432-1.027 1.078-1.969 1.936-2.827 1.073-1.07 2.603-1.839 4.59-2.308 1.986-.469 4.423-.67 7.312-.602.373.016.713.092 1.02.227.306.134.583.322.832.562.243.243.436.519.579.825.142.307.22.65.236 1.027a40.29 40.29 0 0 1-.056 4.001 20.19 20.19 0 0 1-.488 3.342c-.242 1.004-.557 1.897-.948 2.68-.39.783-.86 1.45-1.412 2.004-.85.852-1.775 1.5-2.776 1.942-1 .44-2.069.662-3.204.662-1.172 0-2.246-.195-3.22-.585s-1.867-1.001-2.679-1.833zm2.706-.156c.42.285.904.5 1.452.645.549.146 1.128.22 1.737.22a6.25 6.25 0 0 0 2.551-.548 7.184 7.184 0 0 0 2.244-1.579c.478-.482.877-1.107 1.195-1.876.319-.769.572-1.656.76-2.661a24.09 24.09 0 0 0 .364-3.326c.054-1.212.05-2.5-.013-3.865a48.897 48.897 0 0 0-4.182.058c-1.234.077-2.323.216-3.267.416s-1.753.455-2.429.765c-.676.31-1.225.684-1.646 1.122-.688.7-1.217 1.45-1.588 2.247a5.698 5.698 0 0 0-.556 2.423c0 .782.166 1.608.497 2.476.332.866.749 1.565 1.25 2.094a19.727 19.727 0 0 1 3.12-4.34c1.22-1.284 2.54-2.31 3.954-3.08-1.433 1.253-2.598 2.607-3.494 4.062a15.987 15.987 0 0 0-1.95 4.745z" /><path d="M32.264 15V2.44h10.82V15h-1.759V3.534l.43.466h-8.164l.45-.466V15h-1.777zm19.312.108a4.46 4.46 0 0 1-2.17-.539c-.647-.372-1.167-.916-1.562-1.634-.383-.717-.574-1.615-.574-2.691 0-1.077.185-1.974.556-2.692.383-.717.897-1.256 1.543-1.615.657-.359 1.393-.538 2.206-.538.933 0 1.759.203 2.477.61a4.487 4.487 0 0 1 1.704 1.705c.42.718.628 1.56.628 2.53 0 .969-.21 1.818-.628 2.548a4.487 4.487 0 0 1-1.704 1.705c-.718.406-1.544.61-2.477.61zm-5.042 3.373V5.491h1.65v2.566l-.107 2.207.18 2.207v6.011h-1.723zm4.899-4.88c.61 0 1.154-.137 1.633-.412.49-.275.873-.664 1.148-1.167.287-.513.43-1.105.43-1.775 0-.682-.143-1.268-.43-1.759a2.912 2.912 0 0 0-1.148-1.166c-.479-.275-1.023-.413-1.633-.413a3.28 3.28 0 0 0-1.633.413 3.074 3.074 0 0 0-1.148 1.166c-.276.49-.413 1.077-.413 1.759-.001.67.136 1.262.411 1.776.289.504.671.892 1.15 1.168a3.28 3.28 0 0 0 1.633.412zm7.276 1.4V5.49h1.721v6.926l5.833-6.926h1.561V15h-1.722V8.074L60.288 15h-1.58zm17.32.108a4.46 4.46 0 0 1-2.17-.539c-.647-.372-1.167-.916-1.562-1.634-.382-.717-.574-1.615-.574-2.691 0-1.077.186-1.974.556-2.692.383-.717.897-1.256 1.544-1.615.657-.359 1.393-.538 2.207-.538.934 0 1.76.203 2.477.61a4.487 4.487 0 0 1 1.704 1.705c.42.718.63 1.56.63 2.53 0 .969-.21 1.818-.628 2.548a4.488 4.488 0 0 1-1.705 1.705c-.718.406-1.543.61-2.476.61zm-5.042 3.373V5.491h1.651v2.566l-.108 2.207.18 2.207v6.011h-1.724zm4.9-4.88c.61 0 1.153-.137 1.632-.412.49-.275.873-.664 1.148-1.167.287-.513.43-1.105.43-1.775 0-.682-.143-1.268-.43-1.759A2.914 2.914 0 0 0 77.52 7.32c-.479-.275-1.023-.413-1.633-.413a3.28 3.28 0 0 0-1.633.413 3.073 3.073 0 0 0-1.148 1.166c-.275.49-.413 1.077-.413 1.759 0 .67.138 1.262.413 1.776.287.504.67.892 1.148 1.168a3.28 3.28 0 0 0 1.633.412zm11.348 1.508c-.957 0-1.806-.21-2.548-.628a4.675 4.675 0 0 1-1.758-1.723c-.43-.742-.646-1.58-.646-2.512 0-.945.215-1.783.646-2.512a4.543 4.543 0 0 1 1.758-1.705c.742-.419 1.591-.628 2.548-.628.945 0 1.789.21 2.53.628.754.407 1.34.975 1.759 1.705.43.717.646 1.555.646 2.512 0 .945-.215 1.782-.645 2.512a4.51 4.51 0 0 1-1.759 1.723c-.741.418-1.585.628-2.53.628zm0-1.508c.61 0 1.155-.137 1.633-.412.49-.275.872-.664 1.147-1.167.276-.513.413-1.105.413-1.775 0-.682-.137-1.268-.412-1.759a2.914 2.914 0 0 0-1.149-1.166c-.48-.275-1.024-.413-1.634-.413-.61 0-1.154.138-1.633.413a3.074 3.074 0 0 0-1.148 1.166c-.287.49-.43 1.077-.43 1.759 0 .67.143 1.262.43 1.776.287.504.67.892 1.148 1.168.479.275 1.023.412 1.633.412zm13.668.592V6.997h-4.127l-.09 1.83a26.437 26.437 0 0 1-.125 1.74 9.448 9.448 0 0 1-.251 1.526c-.107.467-.268.85-.484 1.148-.215.3-.502.486-.86.558l-1.706-.305c.371.012.67-.108.897-.36.228-.262.401-.621.52-1.076.132-.454.228-.969.288-1.543.06-.586.108-1.19.144-1.812l.142-3.212h7.375v8.703h-1.723zm-8.02 3.015v-3.714h11.196v3.714h-1.614V15h-7.95v2.207h-1.632zM106.144 15V5.49h1.724v4.037h5.42V5.49h1.72V15h-1.72v-3.984h-5.42V15h-1.723zm12.036 0V5.49h1.722V15h-1.722zm.86-11.34c-.334 0-.615-.108-.843-.324a1.075 1.075 0 0 1-.323-.79c0-.322.108-.591.323-.807.228-.216.51-.324.844-.324.336 0 .61.108.826.323.228.203.34.46.34.77 0 .324-.106.6-.322.826-.215.216-.496.323-.843.323zM32.265 33V20.44h1.47l5.635 9.492h-.79l5.562-9.493h1.472L45.632 33h-1.723l-.019-9.851h.414l-4.953 8.325h-.824l-4.989-8.326h.45v9.85h-1.723zm22.643 0v-2.01l-.09-.376v-3.428c0-.73-.215-1.292-.646-1.687-.418-.407-1.052-.61-1.9-.61-.563 0-1.113.095-1.652.286-.538.18-.993.425-1.363.736l-.718-1.292a5.087 5.087 0 0 1 1.758-.897 7.284 7.284 0 0 1 2.171-.323c1.304 0 2.31.317 3.015.95.707.635 1.06 1.604 1.06 2.908V33h-1.633zm-3.122.108c-.706 0-1.328-.12-1.867-.36-.526-.239-.933-.567-1.22-.986a2.562 2.562 0 0 1-.43-1.454c0-.514.12-.98.358-1.4.252-.418.652-.753 1.203-1.004.56-.251 1.315-.377 2.26-.377h3.014v1.238h-2.943c-.86 0-1.44.144-1.74.43a1.39 1.39 0 0 0-.448 1.042c0 .466.186.843.556 1.13.371.275.886.413 1.544.413.646 0 1.208-.144 1.686-.43.49-.288.844-.707 1.06-1.257l.34 1.184c-.227.563-.628 1.011-1.202 1.346-.574.323-1.298.485-2.171.485zM59.462 33v-9.51h1.723v4.037h5.419V23.49h1.723V33h-1.723v-3.984h-5.42V33h-1.722zm18.53-.807v-7.196h-4.127l-.09 1.83a26.44 26.44 0 0 1-.125 1.74 9.437 9.437 0 0 1-.251 1.526c-.11.467-.27.85-.486 1.149-.215.299-.502.484-.861.556l-1.705-.305c.37.012.67-.108.897-.36.228-.262.401-.621.52-1.076.132-.454.228-.969.288-1.543.06-.586.107-1.19.143-1.812l.144-3.212h7.375v8.703h-1.723zm-8.02 3.014v-3.714h11.196v3.714h-1.615V33h-7.949v2.207h-1.633zm18.303-2.1a4.46 4.46 0 0 1-2.17-.538c-.647-.371-1.167-.916-1.562-1.634-.383-.717-.574-1.615-.574-2.691-.001-1.077.184-1.974.555-2.692.383-.717.897-1.256 1.543-1.615.658-.359 1.394-.538 2.207-.538.933 0 1.759.203 2.477.61a4.486 4.486 0 0 1 1.704 1.705c.419.718.628 1.56.628 2.53 0 .969-.21 1.818-.628 2.548a4.487 4.487 0 0 1-1.704 1.705c-.718.406-1.544.61-2.477.61zm-5.042 3.374v-12.99h1.65v2.566l-.107 2.207.18 2.207v6.011h-1.723zm4.899-4.88c.61 0 1.154-.137 1.633-.412.49-.275.873-.664 1.148-1.167.287-.513.43-1.105.43-1.775 0-.682-.143-1.268-.43-1.759a2.912 2.912 0 0 0-1.148-1.166c-.479-.275-1.023-.413-1.633-.413a3.28 3.28 0 0 0-1.633.413 3.073 3.073 0 0 0-1.15 1.166c-.275.49-.412 1.077-.412 1.759 0 .67.137 1.262.412 1.776.287.504.67.892 1.149 1.168a3.28 3.28 0 0 0 1.632.412zm7.275 1.4v-9.51h1.723v6.926l5.832-6.926h1.56V33H102.8v-6.926L96.987 33h-1.58z" /></g><defs><clipPath id="clip0_12792_725"><rect /></clipPath></defs>
</symbol>
<symbol id="icon-eco--1-" viewBox="0 0 24 24">
<path  d="M5.223 19.727a8.4 8.4 0 0 1-1.746-2.657 8 8 0 0 1-.626-3.082q0-1.843.65-3.382.65-1.54 1.937-2.827 1.61-1.605 4.59-2.308t7.312-.603q.56.025 1.02.226.458.203.83.563.365.365.58.825.212.46.236 1.026a40 40 0 0 1-.056 4.003 20 20 0 0 1-.488 3.342q-.363 1.506-.948 2.68a7.6 7.6 0 0 1-1.412 2.003q-1.275 1.28-2.776 1.944-1.5.66-3.204.662-1.76 0-3.22-.585t-2.68-1.833m2.708-.156q.63.426 1.452.645a6.7 6.7 0 0 0 1.737.22q1.313 0 2.55-.548a7.2 7.2 0 0 0 2.244-1.58q.717-.722 1.195-1.875t.76-2.66a24 24 0 0 0 .363-3.328q.082-1.818-.012-3.865a49 49 0 0 0-4.18.06q-1.852.113-3.268.414-1.416.3-2.43.765T6.7 8.94Q5.666 9.992 5.11 11.19a5.7 5.7 0 0 0-.556 2.423q0 1.174.497 2.476.5 1.3 1.25 2.094a19.7 19.7 0 0 1 3.12-4.34q1.83-1.926 3.955-3.08-2.15 1.88-3.495 4.062a16 16 0 0 0-1.95 4.745"/>
</symbol>
<symbol id="icon-eco" viewBox="0 0 24 24">
<path d="M5.223 19.727a8.38 8.38 0 0 1-1.746-2.656 7.96 7.96 0 0 1-.626-3.082c0-1.229.217-2.356.65-3.382.433-1.027 1.079-1.969 1.937-2.827 1.073-1.07 2.603-1.84 4.59-2.308 1.986-.47 4.423-.67 7.312-.603.372.016.712.092 1.018.226.307.135.584.323.833.563a2.667 2.667 0 0 1 .815 1.852 40.29 40.29 0 0 1-.055 4.001 20.168 20.168 0 0 1-.488 3.342c-.242 1.004-.558 1.897-.948 2.68-.39.783-.86 1.45-1.412 2.003-.85.854-1.775 1.502-2.776 1.944-1 .44-2.069.661-3.204.661-1.173 0-2.246-.194-3.22-.584-.975-.39-1.867-1.001-2.679-1.833zm2.707-.156c.42.285.903.5 1.452.645.549.146 1.128.22 1.737.22.875 0 1.725-.183 2.55-.548a7.18 7.18 0 0 0 2.244-1.579c.478-.482.876-1.107 1.195-1.876.318-.769.571-1.656.76-2.661a24.09 24.09 0 0 0 .363-3.326c.055-1.212.05-2.5-.012-3.865a48.926 48.926 0 0 0-4.181.058c-1.235.077-2.324.216-3.268.416s-1.754.455-2.429.765c-.675.31-1.224.684-1.645 1.122-.688.7-1.217 1.45-1.588 2.247a5.698 5.698 0 0 0-.556 2.423c0 .782.166 1.608.497 2.475.333.868.75 1.567 1.25 2.096a19.728 19.728 0 0 1 3.12-4.34c1.222-1.284 2.54-2.31 3.955-3.08-1.434 1.253-2.599 2.607-3.495 4.061a15.988 15.988 0 0 0-1.95 4.746z" />
</symbol>
<symbol id="icon-edit" viewBox="0 0 24 24">
<path d="M4.548 19.446h1.106l11.495-11.47-1.095-1.1L4.548 18.352v1.094zm-.846 1.704a.826.826 0 0 1-.851-.852v-1.92c0-.229.047-.451.14-.67.094-.217.217-.402.37-.555L17.214 3.319c.137-.143.302-.253.496-.332.193-.08.394-.118.602-.118.19 0 .382.04.573.118.192.08.368.187.53.325l1.298 1.279c.154.162.266.34.337.533a1.602 1.602 0 0 1-.013 1.175c-.079.2-.187.37-.324.512L6.859 20.64a1.843 1.843 0 0 1-.56.37 1.66 1.66 0 0 1-.665.14H3.702zM16.605 7.42l-.55-.544 1.094 1.1-.545-.556z" />
</symbol>
<symbol id="icon-facebook--1-" viewBox="0 0 24 24">
<path d="M22 12.304c0-5.557-4.477-10.061-10-10.061S2 6.747 2 12.303c0 5.023 3.657 9.185 8.438 9.94v-7.03h-2.54v-2.91h2.54v-2.216c0-2.521 1.493-3.914 3.777-3.914 1.094 0 2.238.196 2.238.196v2.475h-1.26c-1.243 0-1.63.776-1.63 1.572v1.887h2.773l-.443 2.908h-2.33v7.03c4.78-.754 8.437-4.916 8.437-9.938z" />
</symbol>
<symbol id="icon-keyboard_arrow_down" viewBox="0 0 24 24">
<path d="M12 15.202a.814.814 0 0 1-.603-.261L6.453 9.998a.79.79 0 0 1-.242-.61.878.878 0 0 1 .268-.609.83.83 0 0 1 .61-.255c.235 0 .439.085.609.255L12 13.107l4.328-4.329c.17-.17.37-.25.597-.242a.865.865 0 0 1 .597.267.83.83 0 0 1 .255.61.83.83 0 0 1-.256.609l-4.918 4.919a.813.813 0 0 1-.603.26z"  />
</symbol>
<symbol id="icon-keyboard_arrow_up" viewBox="0 0 24 24">
<path d="M12 8.704c.093 0 .17.028.25.108l4.943 4.945A.32.32 0 0 1 17.3 14a.32.32 0 0 1-.107.243.334.334 0 0 1-.256.109.333.333 0 0 1-.255-.109l-4.33-4.305-.354-.351-4.68 4.68c-.078.078-.144.1-.225.097a.367.367 0 0 1-.261-.12.334.334 0 0 1-.109-.257c0-.1.03-.177.109-.256l4.918-4.917a.326.326 0 0 1 .25-.109z" />
</symbol>
<symbol id="icon-instagram--1-" viewBox="0 0 24 24">
<path d="M12.005 4.866c2.404 0 2.689.01 3.634.053.878.038 1.352.185 1.669.308.417.162.72.36 1.032.672.317.316.51.615.675 1.033.123.317.27.795.31 1.67.042.95.052 1.234.052 3.635s-.011 2.69-.054 3.635c-.038.88-.186 1.353-.31 1.67a2.78 2.78 0 0 1-.67 1.033c-.317.317-.616.51-1.034.675-.316.124-.794.272-1.67.31-.949.043-1.234.053-3.635.053-2.4 0-2.688-.01-3.634-.053-.88-.038-1.354-.186-1.67-.309a2.785 2.785 0 0 1-1.034-.67 2.823 2.823 0 0 1-.676-1.034c-.123-.316-.27-.794-.31-1.67-.041-.949-.052-1.233-.052-3.634s.01-2.69.053-3.635c.039-.88.186-1.353.31-1.67.16-.419.358-.72.67-1.034A2.82 2.82 0 0 1 6.7 5.228c.316-.123.793-.27 1.67-.31.945-.041 1.23-.052 3.634-.052zm0-1.62c-2.444 0-2.749.01-3.71.053-.955.04-1.613.195-2.182.417a4.385 4.385 0 0 0-1.595 1.04 4.406 4.406 0 0 0-1.04 1.593c-.222.573-.377 1.226-.42 2.182-.041.964-.052 1.27-.052 3.713s.01 2.748.053 3.708c.04.956.196 1.614.417 2.183a4.392 4.392 0 0 0 1.04 1.596 4.398 4.398 0 0 0 1.593 1.037c.573.22 1.227.375 2.183.417.96.042 1.265.053 3.708.053 2.444 0 2.75-.01 3.71-.053.956-.042 1.613-.197 2.183-.418a4.392 4.392 0 0 0 1.592-1.038c.499-.5.809-1.002 1.037-1.593.222-.574.376-1.227.419-2.183.043-.96.053-1.266.053-3.71 0-2.442-.01-2.748-.052-3.708-.042-.957-.196-1.614-.418-2.184a4.22 4.22 0 0 0-1.03-1.6A4.398 4.398 0 0 0 17.9 3.72c-.573-.222-1.227-.376-2.183-.419-.963-.044-1.269-.055-3.712-.055z" /><path d="M12.004 7.622a4.624 4.624 0 0 0 0 9.245 4.623 4.623 0 0 0 0-9.245zm0 7.62a2.998 2.998 0 1 1 0-5.996 2.998 2.998 0 0 1 0 5.997z" /><path d="M17.888 7.44a1.08 1.08 0 1 1-2.158 0 1.08 1.08 0 0 1 2.158 0z" />
</symbol>
<symbol id="icon-logout" viewBox="0 0 24 24">
<path d="M4.554 21.15c-.46 0-.86-.17-1.197-.507a1.636 1.636 0 0 1-.506-1.197V4.554c0-.462.17-.862.507-1.2.338-.34.737-.51 1.197-.51h6.605c.24 0 .442.084.605.25a.84.84 0 0 1 .246.613.815.815 0 0 1-.245.605.83.83 0 0 1-.606.242H4.553v14.892h6.605a.82.82 0 0 1 .605.247.83.83 0 0 1 .246.61.815.815 0 0 1-.245.604.828.828 0 0 1-.606.243H4.553zm13.338-8.298H9.816a.82.82 0 0 1-.606-.247.83.83 0 0 1-.246-.61c0-.24.082-.443.246-.604a.828.828 0 0 1 .606-.242h8.026l-1.923-1.923a.78.78 0 0 1-.244-.6.857.857 0 0 1 .268-.596.814.814 0 0 1 .607-.256.854.854 0 0 1 .612.258l3.397 3.396c.165.172.248.37.248.598a.826.826 0 0 1-.25.596l-3.37 3.372a.773.773 0 0 1-.595.245.89.89 0 0 1-.61-.266.86.86 0 0 1-.248-.608.814.814 0 0 1 .259-.61l1.898-1.904z" />
</symbol>
<symbol id="icon-x--1-" viewBox="0 0 24 24">
<path d="M17.176 4.243h2.76l-6.03 6.777L21 20.243h-5.554l-4.35-5.594-4.979 5.593H3.355l6.45-7.25L3 4.243h5.695l3.933 5.112 4.548-5.112zm-.969 14.375h1.53L7.864 5.782h-1.64l9.983 12.836z" />
</symbol>
<symbol id="icon-menu--1-" viewBox="0 0 24 24">
<path d="M3.702 18.221a.82.82 0 0 1-.606-.245.837.837 0 0 1-.245-.616c0-.242.082-.444.246-.606a.83.83 0 0 1 .606-.242h16.596c.24 0 .443.082.61.247a.825.825 0 0 1 .248.608c0 .246-.083.45-.249.61a.84.84 0 0 1-.61.243H3.703zm0-5.368a.82.82 0 0 1-.606-.247.83.83 0 0 1-.245-.61c0-.24.082-.443.246-.604a.83.83 0 0 1 .606-.242h16.596a.83.83 0 0 1 .61.247.825.825 0 0 1 .248.61.84.84 0 0 1-.858.847H3.702zm0-5.364a.82.82 0 0 1-.606-.247.837.837 0 0 1-.245-.614c0-.242.082-.443.246-.605a.83.83 0 0 1 .606-.241h16.596c.24-.001.443.081.61.246a.825.825 0 0 1 .248.609.84.84 0 0 1-.858.853H3.702z" />
</symbol>
<symbol id="icon-youtube--1-" viewBox="0 0 24 24">
<path d="M21.593 7.203a2.506 2.506 0 0 0-1.762-1.766c-1.565-.43-7.83-.437-7.83-.437s-6.264-.007-7.83.404a2.56 2.56 0 0 0-1.767 1.778c-.413 1.566-.417 4.814-.417 4.814s-.004 3.264.406 4.814c.23.857.905 1.534 1.763 1.765 1.582.43 7.83.437 7.83.437s6.265.007 7.831-.403a2.515 2.515 0 0 0 1.767-1.764c.414-1.565.417-4.812.417-4.812s.02-3.265-.407-4.83zM9.996 15.005l.005-6 5.208 3.005-5.212 2.995z" />
</symbol>
</svg>